# xmcd CD database file
#
# Track frame offsets:
#	150
#	40035
#	80762
#	112587
#	151182
#
# Disc length: 2561 seconds
#
# Revision: 1
# Processed by: cddbd v1.5.2PL0 Copyright (c) Steve Scherf et al.
# Submitted via: CDex 1.70beta2
#
DISCID=2a09ff05
DTITLE=Marcio Doctor - Restless World
DYEAR=1900
DGENRE=Jazz
TTITLE0=Primal Soils
TTITLE1=Restless World
TTITLE2=The Unique Wind
TTITLE3=Sombras Del Regreso
TTITLE4=Playground in the Dark
EXTD=
EXTT0=
EXTT1=
EXTT2=
EXTT3=
EXTT4=
PLAYORDER=
